<?xml version="1.0" encoding="utf-8"?>
<!-- Generator: Adobe Illustrator 22.1.0, SVG Export Plug-In . SVG Version: 6.00 Build 0)  -->
<svg version="1.1" id="Camada_1" xmlns="http://www.w3.org/2000/svg" xmlns:xlink="http://www.w3.org/1999/xlink" x="0px" y="0px"
	 viewBox="0 0 1080 1920" style="enable-background:new 0 0 1080 1920;" xml:space="preserve">
<style type="text/css">
	.st0{fill:#FFFFFF;}
	.st1{fill:#FF0056;}
	.st2{fill:#ECF000;}
	.st3{fill:#00D23E;}
	.st4{fill:#3300FF;}
	.st5{fill:#231F20;}
	.st6{fill:url(#SVGID_1_);}
</style>
<rect x="2.8" y="2.6" class="st0" width="1080" height="1917.4"/>
<path class="st1" d="M0,1747.3c13.2-3.1,27-4.8,41.2-4.8c98,0,177.5,79.5,177.5,177.5H0L0,1747.3z"/>
<path class="st2" d="M0,1828.6c23.2-22.9,55.1-37.1,90.3-37.1c70.9,0,128.4,57.5,128.4,128.4H0L0,1828.6z"/>
<path class="st3" d="M125.8,1827.1c51.3,0,92.9,41.6,92.9,92.9H32.8C32.8,1868.7,74.5,1827.1,125.8,1827.1z"/>
<path class="st4" d="M151.5,1852.7c37.1,0,67.3,30.1,67.3,67.3H84.2C84.2,1882.9,114.3,1852.7,151.5,1852.7z"/>
<path class="st1" d="M910.1,1920c-3.1-13.2-4.8-27-4.8-41.2c0-98,79.5-177.5,177.5-177.5V1920H910.1z"/>
<path class="st2" d="M991.4,1920c-22.9-23.2-37.1-55.1-37.1-90.3c0-70.9,57.5-128.4,128.4-128.4V1920H991.4z"/>
<path class="st3" d="M989.8,1794.2c0-51.3,41.6-92.9,92.9-92.9v185.9C1031.4,1887.2,989.8,1845.5,989.8,1794.2z"/>
<path class="st4" d="M1015.5,1768.5c0-37.1,30.1-67.3,67.3-67.3v134.5C1045.6,1835.8,1015.5,1805.7,1015.5,1768.5z"/>
<path class="st1" d="M1082.8,855.3c-65.3,15.5-133.4,23.8-203.5,23.8C395.2,879.1,2.8,486.6,2.8,2.6h1080V855.3z"/>
<path class="st2" d="M1082.8,453.7C968.2,566.9,810.8,636.8,637,636.8C286.7,636.8,2.8,352.8,2.8,2.6h1080V453.7z"/>
<g>
	<g>
		<path class="st5" d="M304.3,1125.8c0-48.1,36.6-81.7,81.9-81.7c28.2,0,49.8,10.6,63.4,31l-12.9,9.4
			c-10.3-15.3-27.5-25.1-50.4-25.1c-37.3,0-64.4,28.4-64.4,66.4s27,66.4,64.4,66.4c23.2,0,41.1-10.1,52.6-26.8l13.1,9.1
			c-14.1,20.7-37.1,32.9-65.7,32.9C340.9,1207.6,304.3,1173.9,304.3,1125.8z"/>
		<path class="st5" d="M472.1,1157c0-28.4,22.5-50.7,51.6-50.7c28.8,0,51.2,22.3,51.2,50.7s-22.3,50.4-51.2,50.4
			C494.7,1207.6,472.1,1185.4,472.1,1157z M558.3,1157c0-20.9-13.8-36.4-34.5-36.4c-20.9,0-35,15.5-35,36.4
			c0,20.9,14.1,36.4,35,36.4C544.5,1193.4,558.3,1177.9,558.3,1157z"/>
		<path class="st5" d="M604.3,1036.1h15.1v191.6h-15.1V1036.1z"/>
		<path class="st5" d="M651.1,1157c0-28.4,22.5-50.7,51.6-50.7c28.8,0,51.2,22.3,51.2,50.7s-22.3,50.4-51.2,50.4
			C673.6,1207.6,651.1,1185.4,651.1,1157z M737.2,1157c0-20.9-13.8-36.4-34.5-36.4c-20.9,0-35,15.5-35,36.4
			c0,20.9,14.1,36.4,35,36.4C723.4,1193.4,737.2,1177.9,737.2,1157z"/>
		<path class="st5" d="M782.5,1108.5H799l-0.5,19c6.1-14.8,16.9-20.9,28.4-20.9c7.3,0,12.5,1.6,16.9,4.7l-6.3,14.3
			c-3.1-2.1-7.3-3.8-13.4-3.8c-13.8,0-25.1,9.9-25.1,32.6v102.3h-16.5L782.5,1108.5L782.5,1108.5z"/>
		<path class="st5" d="M236.2,1269.5l14.1-7.5c7.5,13.4,18.5,24.9,41.1,24.9c18.5,0,33.1-10.3,33.1-27.2c0-16.2-10.1-24.4-30-33.4
			l-12.7-5.9c-22.8-10.3-35.3-21.3-35.3-43.7c0-23.1,18.1-38.2,42-38.2c21.3,0,34.7,9.9,43.2,24l-13.7,8.5
			c-6.1-9.9-14.6-17.4-29.6-17.4c-15.7,0-25.4,9.1-25.4,22.8c0,14.1,7.5,20.4,25.4,28.7l12.7,5.9c26.6,11.8,40.1,24.9,40.1,48.8
			c0,26.3-20.9,42.3-49.5,42.3C261.3,1301.9,244.6,1286.4,236.2,1269.5z"/>
		<path class="st5" d="M417.9,1288c14.6,0,24.4-5.9,30.7-12.9l10.1,9.9c-9,10.1-21.9,16.9-40.9,16.9c-31.9,0-52.6-22.1-52.6-50.4
			s21.9-50.7,50.3-50.7c31.2,0,50,24,48.8,56.1h-82.6C383.9,1275.4,396.6,1288,417.9,1288z M448,1244.3
			c-1.4-16.6-11.9-29.8-32.4-29.8c-18.5,0-31,11.9-33.5,29.8H448z"/>
		<path class="st5" d="M492.6,1189.6c0,0,12,11.1,51,11.1c21.6,0,36.4,14.8,36.4,40.1v59.2h-16.5v-57.3c0-17.2-8-27-24.2-27
			c-18.1,0-30.3,11.5-30.3,30.7v53.5h-16.5V1189.6z"/>
		<path class="st5" d="M597.5,1279.3l12.7-7.3c5.6,9.4,14.1,16.5,28.2,16.5c13.1,0,20.7-5.6,20.7-14.6c0-10.6-8.5-12.9-25.4-17.8
			c-15.3-4.4-29.4-10.6-29.4-28.8c0-16.9,14.1-26.6,31.9-26.6c14.8,0,25.6,6.1,32.4,15.7l-11.3,8.7c-5-6.8-11.8-11-21.2-11
			c-10.6,0-16.9,5-16.9,12.5c0,9.1,5.9,11.8,23.1,16.6c16.5,4.4,32.2,11,32.2,29.8c0,16.5-11,28.8-35.4,28.8
			C617.7,1301.9,603.9,1291.5,597.5,1279.3z"/>
		<path class="st5" d="M752.9,1288c14.6,0,24.4-5.9,30.7-12.9l10.1,9.9c-9,10.1-21.9,16.9-40.9,16.9c-31.9,0-52.6-22.1-52.6-50.4
			s21.9-50.7,50.3-50.7c31.2,0,50,24,48.8,56.1h-82.6C718.8,1275.4,731.5,1288,752.9,1288z M782.9,1244.3
			c-1.4-16.6-11.9-29.8-32.4-29.8c-18.5,0-31,11.9-33.5,29.8H782.9z"/>
	</g>
	<g>
		<g>
			<g>
				
					<linearGradient id="SVGID_1_" gradientUnits="userSpaceOnUse" x1="-3544.6545" y1="484.0495" x2="-2955.1838" y2="484.0495" gradientTransform="matrix(-0.9981 -6.140112e-02 6.140112e-02 -0.9981 -2730.7573 1838.0035)">
					<stop  offset="0" style="stop-color:#3300FF"/>
					<stop  offset="0.25" style="stop-color:#00D23E"/>
					<stop  offset="0.75" style="stop-color:#ECF000"/>
					<stop  offset="1" style="stop-color:#FF0056"/>
				</linearGradient>
				<path class="st6" d="M640.5,1422.3c133.7,77.4,183.1,277.5,186.5,310.1c0.3,2.9-1.9,5.3-4.7,5.6c-81,8.5-196.3,4.7-268.1-9.7
					c-76.9-15.4-123.3-54.3-141.6-117.3l0.1-0.3c0-0.1,0.1-0.5,0.1-0.6l0.3,0.1l-0.1,0.3c-9.9-37.4-5.4-77.6,15.6-111.2
					c16.8-27,42.5-47.4,72.5-57.7c37.6-12.8,77.7-9.2,112.1,9.9c32.4,18,55.8,47.4,66,83c9.9,34.6,4.2,71.1-16.2,101.4
					c-13.2,19.5-31.9,34.9-53.6,43.9c-20,8.3-41.2,11-61.6,8.5c-15.2-1.9-30.1-6.7-44-14.4c-28.3-15.7-48.9-41.5-57.7-72.7
					c-5-17.5-4.2-46.1,2-63.2c13.3-36.3,43.9-61.5,81.7-67.5c18-2.9,36.6-0.9,53.5,5.9c30.7,12.2,53,37,61.8,67.9
					c7.4,25.9,2.5,53.3-13.8,75.5c-9.4,12.7-22.3,22.6-37,28.5c-14,5.6-28.6,7.4-42.9,5.6c-10.9-1.3-21.5-4.8-31.4-10.2
					c-20.2-11.2-34.8-29.6-41.2-51.8l0,0c-6.5-22.6-1.5-46.7,14.3-65.4c5.7-6.8,12.7-12.3,20.6-16.3c21.8-11.1,46.4-10.6,67,0.8
					c11.6,6.5,21.1,15.9,27.4,27.3c17.3,31.1,3.8,71.3-30.3,81.5c-7.3,2.2-14.8,2.8-22.1,1.9c-6.8-0.8-13.4-3-19.6-6.4
					c-10.4-5.8-18.5-14.7-23.2-25.4c-9.2-21-0.5-44.5,21.4-51.3c19.4-6.1,40,5.2,45.5,24.7c3.5,12.8-1.5,26.1-13,32.9
					c-6.1,3.7-12.8,4.9-19,4.1h-0.2c-2.7-0.3-3.7,3.4-1.2,4.4c8.9,3.9,19.2,4.6,29.2,1c22.4-7.9,32-34,22.6-55.7
					c-4.9-11.3-13.3-20.6-24.3-26.7c-18.3-10.1-40.5-9.5-59.3,2.7c-2.2,1.5-4.3,3.1-6.2,4.9c-16.1,15.5-21.8,37.1-16,57.2l0,0
					c6.6,23.3,24.2,41.5,48.1,49.3c8.7,2.8,17.8,3.9,26.8,3c26.6-2.3,48.8-17.7,60-41.1c7.5-15.7,8-42.4,1.6-58.7
					c-18.5-47.9-75.3-72.2-124.5-47.2c-10.9,5.6-20.7,13.4-28.3,23c-18.8,23.5-24.6,53.2-16.6,81.2c7.9,27.5,26,50.3,51,64.2
					c30.7,17,67.3,18.1,99.9,2.2c13.4-6.5,25.2-16,34.7-27.5c22.9-28.2,30.1-64.1,20.4-97.9c-10.5-37.1-37.1-66.7-73.5-81.5
					c-20.6-8.3-43.1-10.9-64.9-7.4c-38.8,6.1-71.4,29.1-90.1,62.7c-16.1,29-19.9,62.5-10.9,94.4l0,0c12.8,38.6,38.1,64.3,69.6,80.9
					c169,89,298.6-149.3,137.4-251.8c-66.8-42.4-146-24.7-194,18.6c-62.2,56.2-161.5,27.7-181.5-53.6c-0.2-0.6-0.3-1.3-0.4-2
					c-0.6-2.7,1.1-5.3,3.7-5.9C445.9,1346.3,561.4,1376.5,640.5,1422.3z"/>
			</g>
		</g>
		<g>
			<g>
				<path class="st5" d="M615.2,1410.9c144.1,55.8,223.7,245.9,232.2,277.6c0.8,2.8-1,5.5-3.9,6.3c-78.7,20.9-193.3,34.9-266.4,31.8
					c-78.4-3.4-130.1-34.6-158-94l0.1-0.3c-0.1-0.1,0-0.5-0.1-0.6l0.3,0.1l-0.1,0.3c-15.6-35.4-17.3-75.8-1.8-112.3
					c12.4-29.2,34.7-53.4,62.8-68.2c35.2-18.5,75.3-21.1,112.2-7.5c34.8,12.8,62.5,38.3,78,71.8c15.1,32.6,15.1,69.6-0.3,102.7
					c-9.9,21.3-26.1,39.4-46.2,51.6c-18.6,11.2-39,17.2-59.6,17.8c-15.4,0.5-30.8-2-45.7-7.4c-30.4-11.1-54.7-33.5-68.3-62.9
					c-7.7-16.5-11.3-44.9-7.8-62.7c7.5-37.9,33.8-67.5,70.3-79.4c17.3-5.6,36-6.5,53.8-2.5c32.2,7.3,58.1,28.3,71.6,57.6
					c11.3,24.4,10.8,52.3-2,76.7c-7.3,14-18.5,25.8-32.1,33.8c-13,7.7-27.2,11.8-41.5,12.2c-10.9,0.4-21.9-1.4-32.6-5.3
					c-21.7-8-39-23.8-48.7-44.8l0,0c-9.9-21.4-8.7-45.9,4-66.8c4.6-7.5,10.6-14.2,17.8-19.4c19.8-14.4,44.2-17.6,66.3-9.5
					c12.5,4.6,23.3,12.5,31.2,22.7c21.9,28.1,14.8,69.9-17.3,85.2c-6.9,3.3-14.2,5.1-21.6,5.3c-6.8,0.2-13.7-0.9-20.4-3.3
					c-11.2-4.1-20.6-11.6-26.9-21.6c-12.3-19.4-7.3-43.9,13.3-54c18.3-9,40.3-1,48.8,17.5c5.5,12.1,2.5,26.1-7.7,34.5
					c-5.5,4.6-11.8,6.8-18.1,7h-0.2c-2.7,0.1-3.1,3.9-0.5,4.5c9.4,2.5,19.7,1.5,29-3.5c20.9-11.3,26.4-38.5,13.7-58.6
					c-6.6-10.4-16.4-18.3-28.1-22.6c-19.6-7.2-41.5-3.2-58.1,11.8c-2,1.8-3.8,3.7-5.4,5.8c-13.5,17.8-15.7,40-7,58.9l0,0
					c10.2,21.9,30.3,37.3,55.1,41.2c9,1.4,18.2,1,27-1.1c25.9-6.3,45.5-25,52.9-49.9c5-16.7,1.3-43.1-7.4-58.2
					c-25.7-44.3-85.5-59.5-130.3-27.3c-10,7.1-18.3,16.4-24.5,27.1c-14.9,26.1-16.1,56.3-3.9,82.8c12,26,33.5,45.7,60.3,55.5
					c32.9,12.1,69.3,7.5,99.1-13.3c12.2-8.5,22.5-19.7,30-32.6c18.3-31.4,19.9-68,5.1-99.9c-16.2-34.9-47-60.1-85.3-69.1
					c-21.6-5.1-44.3-4.1-65.3,2.7c-37.4,12.1-66,39.8-79.3,75.9c-11.4,31.1-10.1,64.9,3.8,95l0,0c18.6,36.2,47.6,57.7,81.3,69.2
					c180.7,61.9,272-193.6,96.8-269.9c-72.5-31.6-148-1.9-188.7,48.3c-52.7,65.1-155.3,52.4-187.6-24.9c-0.3-0.6-0.5-1.3-0.8-1.9
					c-1-2.5,0.3-5.4,2.7-6.5C411.2,1365.9,530,1377.8,615.2,1410.9z"/>
			</g>
		</g>
	</g>
</g>
<path class="st3" d="M461.7,461.5C208.2,461.5,2.8,256,2.8,2.6h917.8C920.6,256,715.1,461.5,461.7,461.5z"/>
<path class="st4" d="M334.8,334.6C151.4,334.6,2.8,185.9,2.8,2.6h664.1C666.9,185.9,518.2,334.6,334.8,334.6z"/>
<path class="st1" d="M372.2,2.6c6.7,28.3,10.3,57.8,10.3,88.2c0,209.7-170,379.8-379.8,379.8V2.6H372.2z"/>
<path class="st2" d="M198.2,2.6c49,49.6,79.3,117.8,79.3,193.1c0,151.8-123,274.8-274.8,274.8V2.6H198.2z"/>
<path class="st3" d="M201.6,271.6c0,109.8-89,198.8-198.8,198.8V72.8C112.6,72.8,201.6,161.8,201.6,271.6z"/>
<path class="st4" d="M146.6,326.6c0,79.5-64.4,143.9-143.9,143.9V182.7C82.2,182.7,146.6,247.1,146.6,326.6z"/>
<g>
</g>
<g>
</g>
<g>
</g>
<g>
</g>
<g>
</g>
<g>
</g>
</svg>
