<?xml version="1.0" encoding="utf-8"?>
<!-- Generator: Adobe Illustrator 22.1.0, SVG Export Plug-In . SVG Version: 6.00 Build 0)  -->
<svg version="1.1" id="Camada_1" xmlns="http://www.w3.org/2000/svg" xmlns:xlink="http://www.w3.org/1999/xlink" x="0px" y="0px"
	 viewBox="0 0 618 382" style="enable-background:new 0 0 618 382;" xml:space="preserve">
<style type="text/css">
	.st0{fill:url(#SVGID_1_);}
	.st1{fill:#FFFFFF;}
	.st2{fill:#FFBD54;}
	.st3{fill:none;stroke:#FFFFFF;stroke-linecap:round;stroke-miterlimit:10;}
</style>
<linearGradient id="SVGID_1_" gradientUnits="userSpaceOnUse" x1="-5.957031e-02" y1="191" x2="618.0596" y2="191">
	<stop  offset="0" style="stop-color:#FFFCFF"/>
	<stop  offset="1" style="stop-color:#FFBD54"/>
</linearGradient>
<rect x="-0.1" y="0" class="st0" width="618.1" height="382"/>
<path class="st1" d="M-0.1,382h618.1V0H-0.1V382z M469.5,379.5c-46.4-1.3-83.8-38.8-85.1-85.1h50.7h5h29.4V379.5z M384.4,289.3
	c1.3-27.4,23.3-49.4,50.7-50.7v29.6v4.8v16.3H384.4z M440.1,289.3v-16.1h29.4c-1.3,9.1-9.1,16.1-18.5,16.1H440.1z M469.5,289.3h-4
	c1.5-1.2,2.8-2.5,4-4V289.3z M469.5,268h-29.4v-29.3c15.4,1.2,27.8,13.3,29.4,28.5V268z M469.5,251.8c-3.2-5.5-7.9-10-13.4-13.2
	h13.4V251.8z M615.5,379.5h-105c50.9-13.6,91.2-53.6,105-104.5V379.5z M615.5,243.6c-3.9,74.9-65.4,134.7-140.9,135.9v-90.2h0v-15.8
	c0.1-0.9,0.2-1.9,0.2-2.8h0c0,0,0-0.1,0-0.1c0,0,0-0.1,0-0.1h0c0-1.2-0.1-2.4-0.2-3.6v-28.3h140.9V243.6z M615.5,2.5v183.8
	c-9.5-44.7-31.6-85.8-64.7-118.9C517.5,34.1,476,11.8,430.9,2.5H615.5z M384.4,2.5C509.1,3.7,610.7,103.2,615.5,227v6.6H474.5h-5
	h-29.4h-5h-50.7V2.5z M384.4,238.6H414c-13.2,5.9-23.8,16.5-29.7,29.7V238.6z M384.4,321.9c9.3,27,30.7,48.4,57.6,57.6h-57.6V321.9z
	 M379.4,233.6v5v50.7v5v85.2H2.4c1.6-207.2,169.8-375.4,377-377V233.6z M2.3,2.5h317.6c-30,4.9-59.3,13.3-87.5,25.2
	c-45.8,19.4-87,47.1-122.3,82.5S47,186.7,27.6,232.6C15.7,260.8,7.2,290,2.3,320.1V2.5z"/>
<g>
	<g>
		<path class="st2" d="M245.7,244.5c-0.1,0.1-0.1,0.2-0.1,0.2h0.1C245.7,244.6,245.7,244.5,245.7,244.5z"/>
		<g>
			<path class="st2" d="M284.3,138.9c-10-6.6-21.8-10.1-34-10c-1.4,3.6-3.3,7-5.7,10c-2.6,3.3-5.7,6.2-9.1,8.6
				c-1.1,0.8-2.5,1.5-3.8,2.3c-3.1,1.6-6.2,2.8-9.5,3.6c6.4,2.7,12.5,5.8,18.2,9.7c5.6,3.8,10.9,8.2,15.8,12.9
				c0.1,0.1,0.2,0.2,0.2,0.2c0.2-3.5,0.8-6.9,1.8-10c1.4-4.6,3.6-8.9,6.6-12.8c2.8-3.8,6.2-7,10.1-9.6
				C277.7,141.7,281,140.1,284.3,138.9z"/>
			<path class="st2" d="M243.8,129.2c-14.3,1.7-27.4,8.3-37.1,18.9C222,150.9,237,143.4,243.8,129.2z"/>
			<path class="st2" d="M213.7,268.8c-4.9,1.1-10.1,1.6-15.4,1.5c-15-0.3-29.2-5.7-40.5-15.5c-6.9,7.3-12.5,15.5-16.8,24.5
				c14.2,3.8,29.1,4.1,43.1,1.3c11.2-2.3,21.8-6.5,31.7-12.5C215.4,268.5,214.5,268.6,213.7,268.8z"/>
			<path class="st2" d="M210.9,263.5c18.6-3.8,33.7-20.1,36.3-38.9c-30.7-5.2-62.5,4.7-85,26.1C175.5,262.2,193.7,267,210.9,263.5z"
				/>
			<path class="st2" d="M222.6,271.1c-9,6.1-18.9,10.8-29.5,13.6c-9.1,2.6-18.8,3.8-28.4,3.8c-8.8-0.1-17.5-1.2-25.9-3.6
				c-2.2,5.2-3.8,10.6-5.1,16.1c25.3,4.2,50.9-1.3,72.2-15.9C212.1,280.9,217.6,276.2,222.6,271.1z"/>
			<path class="st2" d="M142.4,356.4c6.5-2.4,12.7-5.2,18.7-8.3c0.2-0.2,0.3-0.2,0.5-0.3c16-8.5,30.3-19.5,42.5-32.4
				c0.2-0.2,0.3-0.3,0.5-0.5c0.1-0.1,0.1-0.1,0.2-0.2c5.8-6.4,11.2-13.1,16.2-20.5c0.2-0.2,0.2-0.3,0.4-0.5
				c6.9-10.4,12.6-21.5,17-33.3c-0.2,0.3-0.4,0.6-0.6,0.9c-3.8,5.6-8.2,10.9-12.9,15.8c-4.8,4.8-10,9.1-15.5,12.9
				c-5.5,3.8-11.6,7-17.7,9.6c-6.2,2.8-12.8,4.8-19.4,6.2c-13,2.8-26.3,3.1-39.5,0.8c-2.2,12.9-0.8,28.1,1.2,38.8
				C136,356.1,138.3,357.6,142.4,356.4z"/>
			<path class="st2" d="M206.6,154.3c2.6,5.9,4.3,12.2,5,18.7c0.9,7.6,0.4,15.4-1.3,22.8c-2.4,10-7,19.4-13.5,27.1
				c4-1.4,8-2.5,12.1-3.4c13.4-2.9,27.3-3.1,41-0.6h0.1c1.9,0.4,3.1,0.8,3.6,1.6s0.2,1.5,0.2,1.7l0,0c-0.2,1.2-0.5,2.5-0.8,3.8
				c-1.7,12.6-4.8,25.1-9.2,36.9c-4.8,12.8-11.2,25.1-19.1,36.4c-7.7,11.2-16.8,21.3-26.8,30.3c-5.5,4.8-11.2,9.3-17.3,13.4
				c-3.2,2.2-6.5,4.2-9.8,6.2c17.2,1.9,34.4-0.5,50.3-7.3c0.2-0.2,0.4-0.2,0.6-0.2c17.5-7.5,32.3-19.9,42.9-35.6
				c7-10.4,12-21.8,14.6-34.1c0-0.1,0-0.1,0.1-0.2c0.2-0.9,0.4-1.7,0.5-2.7c4.9-26.1-0.5-52.5-15.5-74.6
				C250.5,174.6,230.1,160.4,206.6,154.3z"/>
		</g>
	</g>
	<circle class="st3" cx="182" cy="251.1" r="99.4"/>
	<circle class="st3" cx="149.1" cy="202.1" r="101"/>
	<circle class="st3" cx="164.1" cy="181.4" r="101"/>
	<circle class="st3" cx="231.8" cy="323.4" r="101"/>
	<circle class="st3" cx="89.9" cy="206.2" r="163.4"/>
	<circle class="st3" cx="251" cy="190.8" r="62.4"/>
	<circle class="st3" cx="149.9" cy="180.6" r="62.4"/>
	<circle class="st3" cx="210.7" cy="110.1" r="38.6"/>
	<circle class="st3" cx="295.5" cy="176.1" r="38.6"/>
</g>
<g>
</g>
<g>
</g>
<g>
</g>
<g>
</g>
<g>
</g>
<g>
</g>
</svg>
