<?xml version="1.0" encoding="utf-8"?>
<!-- Generator: Adobe Illustrator 22.1.0, SVG Export Plug-In . SVG Version: 6.00 Build 0)  -->
<svg version="1.1" id="Camada_1" xmlns="http://www.w3.org/2000/svg" xmlns:xlink="http://www.w3.org/1999/xlink" x="0px" y="0px"
	 viewBox="0 0 854.1 618" style="enable-background:new 0 0 854.1 618;" xml:space="preserve">
<style type="text/css">
	.st0{fill:#FFF9CF;}
	.st1{fill:#D60057;}
	.st2{fill:#DBE0E8;}
	.st3{fill:#409CBC;}
	.st4{fill:#FFFFFF;}
	.st5{fill:#4BB1E0;}
	.st6{fill:#82C7E6;}
	.st7{fill:#F6C500;}
	.st8{fill:#FF4500;}
	.st9{clip-path:url(#SVGID_2_);}
	.st10{fill:#A82800;}
	.st11{fill:#3BAD4C;}
	.st12{fill:#7FD7C3;}
	.st13{fill:#6B625A;}
	.st14{fill:#534747;}
	.st15{fill:#58595B;}
	.st16{fill:#D7384A;}
	.st17{fill:#393231;}
	.st18{fill:#FFD985;}
	.st19{fill:#35783C;}
	.st20{fill:#FFB839;}
	.st21{opacity:0.25;fill:#FFFFFF;enable-background:new    ;}
	.st22{fill:#CCE673;}
	.st23{fill:#E3FF6E;}
	.st24{fill:#729100;}
</style>
<g>
	<g>
		<g>
			<path class="st0" d="M283.9-57.6L28.6-83.1C15.9-84.5,4.8-75.3,3.5-62.7l-46.8,468.2l47.6-53l31,53.9l41-46.8l31,53.9l41-46.8
				l31,53.9l41-46.8l0,0l36.1,61.9l46.8-468.2C305.7-44.8,296.7-56.4,283.9-57.6z"/>
		</g>
		<g>
			<path class="st1" d="M277.1-43.3c9.1,0.9,15.7,9.1,14.8,18l-43.4,433.9l-30.1-51.7l-39.8,44.7l-30.1-51.7l-39.8,44.7l-30.1-51.7
				l-39.7,44.8L8.7,335.9l-39.8,44.7L12.2-53.2c0.9-9.1,9.1-15.7,18-14.8L277.1-43.3 M284.4-62.9L29.1-88.5
				C13.2-90.1-0.8-78.6-2.3-62.7l-48.5,485.2L-28,397l31.4-34.9l23.8,40.4l7.8,13l10.3-11.3l31.4-34.9l23.8,40.4l7.8,13l10.3-11.3
				l31.4-34.9l23.8,40.4l7.8,13l10.3-11.3l31.4-34.9l23.8,40.4l17.4,29.6l48-485C311.2-47.4,299.8-61.5,284.4-62.9z"/>
		</g>
		<g>
			<path class="st1" d="M174.6,249.2l-99.6-10c-3.2-0.4-5.1-3.2-4.8-5.8c0.4-3.2,3.2-5.1,5.8-4.8l100.2,10c3.2,0.4,5.1,3.2,4.8,5.8
				C180.7,247,177.7,249.5,174.6,249.2z"/>
		</g>
		<g>
			<path class="st1" d="M203.3,277.2L41.2,261c-3.2-0.4-5.1-3.2-4.8-5.8c0.2-2.6,3.2-5.1,5.8-4.8l161.6,16.2
				c3.2,0.4,5.1,3.2,4.8,5.8C208.3,275.1,206,277.5,203.3,277.2z"/>
		</g>
	</g>
	<g>
		<circle class="st1" cx="139.5" cy="96.5" r="85.2"/>
	</g>
	<g>
		<path class="st0" d="M126.1,134.7L93.7,94.5c-2.9-3.5-2.4-8.8,1.2-11.6c3.5-2.9,8.8-2.4,11.6,1.2l21.9,26.8l47.8-39.7
			c3.5-2.9,8.8-2.4,11.6,1.2c2.9,3.5,2.4,8.8-1.2,11.6L126.1,134.7z"/>
	</g>
</g>
<g>
	<path class="st2" d="M301.3,474.5l156.8-87.9l-64.7-115.5c-12.9-23.1-42.2-31.3-65.2-18.4l-387,216.9
		c-23.1,12.9-31.3,42.2-18.4,65.2L52.3,766c12.9,23.1,42.2,31.3,65.2,18.4l271.9-152.5L301.3,474.5z"/>
	<path class="st3" d="M183.8,450c1.9,3.4,0.2,6.5-5.1,9.5c-1,0.6-2.6,1.2-4.7,1.9c2,2.3,4.1,5,6.2,8s3.9,5.6,5,7.6
		c2.6,4.6,3.8,8.6,3.7,11.8c0,3.3-1.4,5.6-3.9,7c-3.1,1.7-6.4,0.8-10.2-2.8c-3.8-3.6-8.1-9.8-13-18.6c-4.6-8.2-8.4-17-11.3-26.4
		c-3-9.4-4.4-17.8-4.4-25c0-7.3,1.8-11.9,5.5-13.9c2-1.1,4.1-1.1,6.2,0c2.1,1.1,4.1,3.2,5.8,6.3c5.6,10.1,5.8,24.3,0.3,42.8
		c1.9,4.4,3.8,8.2,5.6,11.3c2.5,4.4,5.2,8.9,8,13.3c2.9,4.5,4.7,6.5,5.4,6.1c1.3-0.7,0.7-3.3-1.8-7.7c-1.9-3.3-3.9-6.4-6.1-9.3
		c-2.2-2.9-4.6-5.8-7.3-8.8c-0.4-0.5-0.6-1.3-0.6-2.4c-0.1-1,0-2.1,0.3-3c0.2-0.9,0.6-1.6,1.1-1.8c0.8-0.5,1.9-1,3.2-1.6
		c0.4-0.2,0.9-0.4,1.4-0.6c1.7-1,3.6-2.2,5.4-3.6c0.3-0.2,0.7-0.5,1-0.7c0.4-0.3,0.7-0.5,1.1-0.8C181.6,447.7,182.8,448.2,183.8,450
		L183.8,450z M153.3,421.6c0.4,3.2,1.2,7.3,2.4,12.2c1.3,4.9,2.9,10,4.7,15.2c1.2-5.8,1.6-11.3,1.1-16.5s-1.8-9.7-3.8-13.3
		c-1.5-2.6-2.8-3.6-3.8-3C153.1,416.6,152.9,418.4,153.3,421.6z"/>
	<path class="st3" d="M208.8,430.4c0.6-0.3,1.2-0.5,1.8-0.2s1.1,0.7,1.5,1.4c0.7,1.3,1.1,2.5,1,3.6s-0.6,2-1.4,3
		c-1.6,1.7-3.5,3.2-5.8,4.5c-1.9,1.1-3.8,1.8-5.7,2.2c-0.2,2.7-0.3,5.5-0.6,8.4c-0.3,3.4-0.9,5.8-1.6,7.4c-0.8,1.6-1.9,2.8-3.5,3.7
		c-1.7,1-3.5,1.1-5.2,0.2c-1.7-0.8-3.6-2.6-5.5-5.4c-3.9-5.6-7.1-10.8-9.6-15.3l-1.2-2.2c-0.7-1.4-0.9-2.7-0.5-3.6
		c0.4-1,1.3-1.8,2.8-2.7c1.1-0.6,2.1-0.9,2.9-0.7c0.8,0.2,1.6,0.9,2.2,2c2.8,4.9,6.6,11.1,11.6,18.6c0.4-5.2,0.6-9.4,0.7-12.3
		c-1.3-0.9-2.5-2.2-3.4-3.9c-0.8-1.4-1.3-3.1-1.4-4.8c-0.1-1.7,0.1-3.3,0.8-4.8s1.7-2.6,3-3.4c1.3-0.7,2.5-0.8,3.7-0.3
		s2.4,1.5,3.3,3.2c1.1,1.9,1.7,4.4,2.2,7.5c1.6-1,3.5-2.5,5.9-4.6l1.5-1.3C208.3,430.6,208.5,430.5,208.8,430.4L208.8,430.4z"/>
	<path class="st3" d="M33.9,520.9c0.6,0.4,1.3,1,1.9,2c1.1,1.9,1.4,3.5,1.1,5.1c-0.6,3.6-1.6,6.8-3,9.6c-1.5,2.8-3.6,5.1-6.5,6.8
		c-2.5,1.4-4.9,1.6-7.5,0.7c-1.7,3.2-3.9,5.6-6.7,7.3c4.4,9.3,7.3,17.5,8.5,24.6s-0.2,11.9-4.3,14.3c-2.5,1.4-4.9,1.5-7,0.4
		c-2.2-1.1-4.2-3.3-6-6.4c-2.5-4.5-4.4-10.4-5.8-17.7c-1.3-7.2-1.8-15.7-1.6-25.3c-3.8-6.7-6.5-11.4-8.1-14
		c-0.8-1.3-0.8-2.7-0.2-4.1c0.7-1.4,1.8-2.6,3.5-3.5c0.9-0.5,1.8-0.8,2.4-0.6c0.7,0.1,1.3,0.8,2,2s1.2,2,1.5,2.5
		c0.4-2.7,1.1-4.8,2.2-6.5c1-1.6,2.2-2.9,3.9-3.8c2.6-1.5,5.3-1.6,8.1-0.4c2.8,1.2,5.2,3.4,7.1,6.8c1.4,2.5,2.3,5,2.8,7.8
		s0.6,5.5,0.3,8.1c1.1-0.3,2-0.5,2.7-0.9c1.5-0.8,2.7-2.2,3.5-4.1c0.8-1.9,1.6-4.7,2.3-8.5c0.2-0.9,0.6-1.6,1.4-2
		C32.6,520.6,33.3,520.6,33.9,520.9L33.9,520.9z M12.5,574.3c-2.2-5.9-5.5-12.9-9.8-21.2c0.6,5.8,1.5,11.1,2.7,15.9
		c1.2,4.8,2.7,8.7,4.2,11.6c0.8,1.5,1.6,2.5,2.4,3.1s1.4,0.8,1.9,0.5C15.2,583.5,14.7,580.1,12.5,574.3L12.5,574.3z M12.7,540.1
		c0.6-2.3,0.7-4.7,0.3-7.3c-0.3-2.6-1.2-5.1-2.5-7.4c-0.8-1.4-1.6-2.3-2.6-2.7s-1.9-0.3-2.8,0.2c-1.7,0.9-2.7,3.8-3,8.7
		c1.1,2.1,2.7,5.1,4.9,9c1.2,2.1,2.1,3.8,2.6,5C11.1,544.2,12.1,542.4,12.7,540.1L12.7,540.1z"/>
	<path class="st3" d="M60.8,497.3c0.7-0.4,1.3-0.5,2-0.2s1.1,0.7,1.6,1.6c0.8,1.4,1.2,2.7,1.1,3.8c-0.1,1.1-0.6,2.2-1.5,3.2
		c-1.7,1.8-3.8,3.5-6.2,4.9c-2,1.1-4.1,2-6.3,2.4c-0.1,2.9-0.3,6-0.7,9.2c-0.4,3.7-0.9,6.3-1.8,8.1c-0.8,1.7-2,3.1-3.7,4.1
		c-1.9,1.1-3.8,1.2-5.7,0.3s-3.9-2.8-6-5.9c-4.2-6.2-7.6-11.7-10.4-16.5l-1.4-2.4c-0.8-1.5-1-2.9-0.5-3.9c0.4-1,1.4-2,3.1-3
		c1.2-0.7,2.2-1,3.1-0.7c0.9,0.2,1.7,0.9,2.4,2.2c3,5.4,7.1,12.1,12.6,20.2c0.5-5.7,0.7-10.2,0.7-13.3c-1.4-1-2.7-2.3-3.7-4.2
		c-0.9-1.5-1.4-3.3-1.5-5.2c-0.2-1.9,0.1-3.6,0.8-5.3c0.7-1.6,1.8-2.8,3.3-3.6c1.3-0.7,2.7-0.9,4.1-0.4c1.4,0.5,2.6,1.7,3.6,3.4
		c1.2,2.1,2,4.8,2.3,8.1c1.7-1.1,3.8-2.7,6.5-5l1.7-1.4C60.3,497.6,60.6,497.4,60.8,497.3L60.8,497.3z"/>
	<path class="st3" d="M344.6,385.1c-3.1-1.6-5.9-4.6-8.3-8.9c-1.4-2.5-3-6-4.5-10.3c-1.6-4.3-2.9-8.5-3.7-12.5c-0.5-2-0.5-3.7,0-4.8
		c0.5-1.2,1.6-2.2,3.5-3.3c2.9-1.6,4.8-1.5,5.9,0.5c0.8,1.4,2.1,5,3.9,10.7c2.1,6.9,3.8,11.6,5,13.7c1,1.7,1.9,2.9,2.9,3.5
		s2,0.6,3,0.1c1-0.6,1.9-1.9,2.6-4.2c0.8-2.2,1.5-5.6,2.3-10.1c0.2-1.2,0.7-2,1.6-2.5c0.7-0.4,1.5-0.4,2.3,0s1.6,1.2,2.2,2.4
		c1.3,2.3,1.7,4.3,1.3,6.1c-1.8,9.9-5.1,16.3-9.9,19C351.1,386.6,347.7,386.7,344.6,385.1L344.6,385.1z M323.8,340
		c-1.8-0.4-3.3-1.7-4.4-3.6c-1.1-2-1.3-4.1-0.5-6.3c0.8-2.2,2.4-4,4.7-5.2c2.1-1.2,4-1.6,5.9-1.3c1.9,0.3,3.4,1.4,4.4,3.2
		c1.3,2.3,1.5,4.4,0.9,6.6c-0.7,2.1-2.3,3.9-4.7,5.3S325.5,340.4,323.8,340L323.8,340z"/>
	<path class="st3" d="M245.1,633.1c-2.1-1.7-4.6-5.1-7.4-10c-4.1-7.3-7-14.8-8.5-22.5c-0.4-1.9-0.3-3.6,0.5-5
		c0.7-1.4,2.1-2.7,4.2-3.9c1.1-0.6,2-0.9,2.6-0.9s1.1,0.5,1.6,1.2c0.5,0.9,1.2,3.1,2.1,6.7c0.7,2.5,1.4,4.8,2,6.6s1.5,4,2.6,6.6
		c-1-5.3-1.2-9.9-0.8-14.1s1.3-7.6,2.7-10.4c1.4-2.7,3.1-4.6,5.1-5.7s3.6-1.4,4.9-1c1.4,0.5,2.5,1.6,3.5,3.4c1,1.8,2.3,5.4,3.9,10.7
		c0.7,2.3,1.2,4,1.6,5.1c-1.1-8.5-0.8-15.2,0.9-20.3s4-8.5,6.9-10.1c3.6-2,6.5-1.2,8.5,2.4c1.2,2.2,2.8,6.5,4.8,12.9
		c1.7,5.4,2.9,9,3.8,10.6c1.2,2.2,2.7,2.9,4.4,2c1.1-0.6,2.1-2.1,2.9-4.4c0.8-2.2,1.6-5.7,2.4-10.2c0.2-1.1,0.8-2,1.6-2.4
		c0.7-0.4,1.5-0.4,2.3,0s1.5,1.3,2.2,2.4c1.2,2.2,1.7,4.3,1.3,6.1c-0.8,4.3-2,8.2-3.7,11.7c-1.7,3.4-4.3,6.2-7.8,8.2
		c-2.9,1.6-5.5,2-7.9,1.1s-4.4-2.8-6.2-6c-0.9-1.6-2.1-4.6-3.5-9c-1.3-3.9-2.2-6.6-3-8c-0.5-0.9-1-1.2-1.7-0.8s-1.2,1.9-1.5,4.6
		c-0.3,2.6-0.3,5.9,0.1,9.7s1,7.7,2.2,11.6c0.9,3,1.2,5.2,0.9,6.5c-0.3,1.4-1.4,2.5-3.2,3.5c-1.8,1-3.8,0.9-5.6-0.3
		c-1.9-1.2-3.6-3.1-5-5.6c-1.2-2.1-2.6-5.3-4.4-9.7c-1.6-3.8-2.7-6.3-3.3-7.4c-0.5-0.9-1-1.2-1.7-0.8c-0.8,0.5-1.3,2-1.5,4.8
		s0,6,0.6,9.8s1.3,7.4,2.3,10.9c0.9,3,1.2,5.2,0.9,6.5c-0.3,1.4-1.3,2.6-3,3.5C249.4,635.2,247.2,634.9,245.1,633.1L245.1,633.1z"/>
	
		<rect x="-47" y="515.8" transform="matrix(0.8723 -0.489 0.489 0.8723 -225.1261 175.1555)" class="st4" width="539.5" height="5.5"/>
	
		<rect x="298.4" y="294.2" transform="matrix(0.8723 -0.489 0.489 0.8723 -193.4778 207.8434)" class="st4" width="5.5" height="360.2"/>
	
		<rect x="141.5" y="382.1" transform="matrix(0.8723 -0.489 0.489 0.8723 -256.506 142.3299)" class="st4" width="5.5" height="360.2"/>
	<path class="st5" d="M60.4,392l-9.2-94.3l84.9-31.5l54.9,78.1c3.5,4.9,0.3,11.8-5.7,12.4c-13.5,1.3-35.4,4.5-59.5,12.9
		c-23.7,8.2-41.9,19.9-52.8,28C68.1,401.3,61,398.2,60.4,392L60.4,392z"/>
	<path class="st6" d="M-6.9,340.3l89-87.4c0.4-0.4,0.9-0.6,1.4-0.6l124.5,8.1c1.6,0.1,2.3,2,1.2,3.3l-89.1,87.4
		c-0.4,0.4-0.9,0.6-1.4,0.6l-124.4-8.1C-7.4,343.4-8.1,341.4-6.9,340.3L-6.9,340.3z"/>
	<path class="st7" d="M209.3,258.1c-2.3,5.3-2.7,11.4-0.1,16c0.2,0.3,0.4,0.5,0.5,0.9l0.5,0.9l1.2,1.8l2.4,3.7
		c1.6,2.4,3.1,5,4.6,7.4c3,5.2,5.6,10.5,7.3,16.3c0.5,1.5,0.8,2.9,1,4.5s0.5,3.2,0.6,4.6c0.2,3,0.3,5.9,0.3,8.8
		c0.1,5.8,0.3,11.5,0.9,17.2c0.2,2.9,0.5,5.7,1,8.6c0.4,2.8,0.9,5.7,1.5,8.4c2.4,11.1,6.6,21.9,12.8,31.8c-1.9-2.2-3.9-4.4-5.5-6.7
		c-0.9-1.2-1.6-2.4-2.5-3.7c-0.8-1.3-1.6-2.5-2.2-3.8c-1.4-2.6-2.7-5.3-3.8-8c-1.2-2.8-2.1-5.6-3-8.4c-1.7-5.6-2.9-11.6-3.6-17.4
		c-0.8-5.9-1.2-11.8-1.3-17.5c-0.1-2.9-0.1-5.8-0.3-8.6c0-1.4-0.2-2.7-0.4-4c-0.3-1.3-0.5-2.6-0.9-3.9c-1.4-5.3-3.6-10.5-6.2-15.6
		c-1.2-2.6-2.6-5.1-3.9-7.7c-0.7-1.3-1.3-2.6-2-3.9l-0.9-2l-0.4-1.1c0-0.3-0.3-0.7-0.4-1.1c-1.2-3-1.3-6.2-0.8-9.3
		C206.3,263.2,207.5,260.4,209.3,258.1L209.3,258.1z"/>
	<path class="st7" d="M212.2,263.8c0.4,0.5,0.7,1.2,0.8,1.8c0.1,0.6,0.2,1.3,0.2,1.9c0,1.3,0,2.6-0.2,3.9c-0.2,2.6-0.7,5.2-0.9,7.8
		c-0.2,2.5-0.5,5.1-0.5,7.6c-0.1,2.5-0.1,5,0.1,7.5c0.5,5,1.4,9.8,3.2,14.3c0.4,1.1,1,2.2,1.5,3.4c0.5,1.1,1.1,2.1,1.7,3.2
		c1.3,2,2.6,4.2,4.1,6.4c5.8,8.3,11.9,17,16.3,26.7c1.1,2.4,2,4.9,2.8,7.4s1.4,5.1,1.9,7.7c0.4,2.6,0.6,5.2,0.7,7.9
		c0.1,2.6-0.2,5.3-0.7,7.8c-0.1-1.3-0.2-2.6-0.4-3.8c-0.1-1.3-0.4-2.5-0.6-3.8c-0.5-2.5-1.1-4.9-1.9-7.4c-1.5-4.8-3.6-9.3-6-13.8
		c-2.4-4.4-5.1-8.6-8-12.9c-2.9-4.2-5.9-8.4-8.7-12.7c-1.4-2.2-2.8-4.4-4.1-6.9c-0.7-1.2-1.2-2.4-1.8-3.6c-0.6-1.3-1.1-2.5-1.5-3.8
		c-1.7-5.2-2.5-10.6-2.5-16c-0.1-2.7,0.3-5.4,0.7-7.9c0.3-2.6,0.9-5.2,1.5-7.7c0.6-2.6,1.3-5,1.9-7.5c0.3-1.3,0.6-2.4,0.7-3.7
		c0-0.6,0.1-1.3,0.1-1.9C212.7,265,212.6,264.4,212.2,263.8L212.2,263.8z"/>
	<path class="st5" d="M509.1,564.2c20.4-11.5,27.7-37.3,16.2-57.7L459.5,389l-154.4,86.6L391.6,630L509.1,564.2z"/>
	
		<rect x="362.7" y="477.4" transform="matrix(0.8723 -0.489 0.489 0.8723 -186.5159 264.239)" class="st2" width="99.8" height="23.6"/>
	
		<rect x="385.7" y="518.5" transform="matrix(0.8723 -0.489 0.489 0.8723 -203.6833 280.7417)" class="st2" width="99.8" height="23.6"/>
</g>
<g>
	<path class="st8" d="M633.2,295.9c-14.1,3.2-28.2-5.7-31.4-19.8L551,52c-3.2-14,5.7-28.2,19.8-31.4l224.1-50.8
		c14.1-3.2,28.2,5.7,31.4,19.8l50.8,224.1c3.2,14.1-5.7,28.2-19.8,31.4C857.2,245.1,633.2,295.9,633.2,295.9z"/>
	<path class="st4" d="M795.6-27c12.4-2.8,24.8,5,27.6,17.4L874,214.5c2.8,12.4-5,24.8-17.4,27.6l-224,50.8
		c-12.4,2.8-24.8-5-27.6-17.4L554.2,51.3c-2.8-12.4,5-24.8,17.4-27.6L795.6-27 M794.1-33.3l-224,50.8c-15.8,3.6-25.8,19.4-22.2,35.2
		l50.8,224.1c3.6,15.8,19.4,25.8,35.2,22.2L858,248.2c15.8-3.6,25.8-19.4,22.2-35.2L829.4-11.1C825.8-26.9,810-36.9,794.1-33.3z"/>
	<g>
		<g>
			<g>
				<defs>
					<path id="SVGID_1_" d="M856.5,242l-224,50.8c-12.4,2.8-24.8-5-27.6-17.4L554.2,51.3c-2.8-12.4,5-24.8,17.4-27.6l224-50.8
						c12.4-2.8,24.8,5,27.6,17.4L874,214.4C876.7,226.8,869,239.1,856.5,242z"/>
				</defs>
				<clipPath id="SVGID_2_">
					<use xlink:href="#SVGID_1_"  style="overflow:visible;"/>
				</clipPath>
				<g class="st9">
					
						<rect x="553" y="-2.4" transform="matrix(0.9753 -0.221 0.221 0.9753 10.4268 153.4196)" class="st10" width="275.8" height="65.1"/>
				</g>
			</g>
		</g>
	</g>
	<path class="st4" d="M693.7,127.2l-26.7,6.1c-5.3,1.2-10.6-2.1-11.8-7.4l-6.1-26.7c-1.2-5.3,2.1-10.6,7.4-11.8l26.7-6.1
		c5.3-1.2,10.6,2.1,11.8,7.4l6.1,26.7C702.4,120.7,699,126,693.7,127.2z"/>
	<path class="st4" d="M756.7,112.9L730,119c-5.3,1.2-10.6-2.1-11.8-7.4l-6.1-26.7c-1.2-5.3,2.1-10.6,7.4-11.8l26.7-6.1
		c5.3-1.2,10.6,2.1,11.8,7.4l6.1,26.7C765.3,106.5,761.9,111.7,756.7,112.9z"/>
	<path class="st4" d="M819.6,98.7l-26.7,6.1c-5.3,1.2-10.6-2.1-11.8-7.4L775,70.7c-1.2-5.3,2.1-10.6,7.4-11.8l26.7-6.1
		c5.3-1.2,10.6,2.1,11.8,7.4l6.1,26.7C828.3,92.2,825,97.5,819.6,98.7z"/>
	<path class="st4" d="M645,204.5l-26.7,6.1c-5.3,1.2-10.6-2.1-11.8-7.4l-6.1-26.7c-1.2-5.3,2.1-10.6,7.4-11.8l26.7-6.1
		c5.3-1.2,10.6,2.1,11.8,7.4l6.1,26.7C653.6,198,650.3,203.3,645,204.5z"/>
	<path class="st4" d="M708,190.2l-26.7,6.1c-5.3,1.2-10.6-2.1-11.8-7.4l-6.1-26.7c-1.2-5.3,2.1-10.6,7.4-11.8l26.7-6.1
		c5.3-1.2,10.6,2.1,11.8,7.4l6.1,26.7C716.6,183.7,713.3,189,708,190.2z"/>
	<path class="st11" d="M742.9,180.5c-3.8,0.9-7.8-1.6-8.7-5.5l-6.5-28.5c-0.9-3.8,1.6-7.8,5.5-8.7l28.5-6.5c3.8-0.9,7.8,1.6,8.7,5.5
		l6.5,28.5c0.9,3.8-1.6,7.8-5.5,8.7L742.9,180.5z"/>
	<path class="st4" d="M762.2,133.2c2.9-0.7,5.8,1.2,6.5,4.1l6.5,28.5c0.7,2.9-1.2,5.8-4.1,6.5l-28.5,6.5c-2.9,0.7-5.8-1.2-6.5-4.1
		l-6.5-28.5c-0.7-2.9,1.2-5.8,4.1-6.5L762.2,133.2 M761.4,129.7l-28.5,6.5c-4.8,1.1-7.9,5.9-6.8,10.8l6.5,28.5
		c1.1,4.8,5.9,7.9,10.8,6.8l28.5-6.5c4.8-1.1,7.9-5.9,6.8-10.8l-6.5-28.5C771,131.7,766.3,128.6,761.4,129.7z"/>
	<path class="st4" d="M833.9,161.6l-26.7,6.1c-5.3,1.2-10.6-2.1-11.8-7.4l-6.1-26.7c-1.2-5.3,2.1-10.6,7.4-11.8l26.7-6.1
		c5.3-1.2,10.6,2.1,11.8,7.4l6.1,26.7C842.6,155.1,839.3,160.4,833.9,161.6z"/>
	<path class="st4" d="M659.3,267.4l-26.7,6.1c-5.3,1.2-10.6-2.1-11.8-7.4l-6.1-26.7c-1.2-5.3,2.1-10.6,7.4-11.8l26.7-6.1
		c5.3-1.2,10.6,2.1,11.8,7.4l6.1,26.7C667.9,260.9,664.5,266.2,659.3,267.4z"/>
	<path class="st4" d="M722.2,253.2l-26.7,6.1c-5.3,1.2-10.6-2.1-11.8-7.4l-6.1-26.7c-1.2-5.3,2.1-10.6,7.4-11.8l26.7-6.1
		c5.3-1.2,10.6,2.1,11.8,7.4l6.1,26.7C730.9,246.7,727.6,251.9,722.2,253.2z"/>
	<path class="st4" d="M785.2,238.9l-26.7,6.1c-5.3,1.2-10.6-2.1-11.8-7.4l-6.1-26.7c-1.2-5.3,2.1-10.6,7.4-11.8l26.7-6.1
		c5.3-1.2,10.6,2.1,11.8,7.4l6.1,26.7C793.8,232.4,790.5,237.7,785.2,238.9z"/>
	<path class="st8" d="M755.3,12c-4.7,1.1-9.4-1.9-10.4-6.6L736-33.9c-1.1-4.7,1.9-9.4,6.6-10.4c4.7-1.1,9.4,1.9,10.4,6.6l8.9,39.3
		C762.9,6.3,759.9,11,755.3,12z"/>
	<path class="st8" d="M624.7,41.6c-4.7,1.1-9.4-1.9-10.4-6.6l-8.9-39.3c-1.1-4.7,1.9-9.4,6.6-10.4s9.4,1.9,10.4,6.6l8.9,39.3
		C632.4,35.9,629.5,40.5,624.7,41.6z"/>
	<path class="st4" d="M759.1,161.6c-0.2-1.1-0.8-2-1.8-2.6s-2.5-1-4.5-1.2c-2.8-0.2-5-0.8-6.5-1.8s-2.4-2.5-2.9-4.5
		s-0.3-3.8,0.6-5.4c0.9-1.6,2.3-2.7,4.3-3.4l-1.5-6.6l2.7-0.6l1.5,6.6c2.1-0.1,3.9,0.3,5.4,1.5c1.4,1.2,2.6,3,3.1,5.6l-3.4,0.8
		c-0.4-1.8-1.1-3.1-2.2-3.9c-1.1-0.8-2.3-1.1-3.7-0.8c-1.5,0.3-2.5,0.9-3.1,1.9c-0.6,0.9-0.8,2-0.5,3.4c0.3,1.2,0.9,2.2,1.9,2.7
		c1,0.6,2.5,0.9,4.5,1.1c2,0.2,3.7,0.5,4.9,1s2.1,1.2,2.9,2c0.8,0.8,1.2,2,1.5,3.3c0.5,2.1,0.2,3.9-0.7,5.5c-1,1.5-2.6,2.7-4.8,3.5
		l1.6,7.3l-2.7,0.6l-1.6-7.3c-2.4,0.3-4.3-0.1-5.9-1.3c-1.6-1.1-2.7-2.9-3.2-5.4l3.4-0.8c0.4,1.7,1.1,3,2.3,3.6
		c1.1,0.8,2.5,0.9,4.1,0.5s2.8-1,3.6-2C759.2,164.1,759.4,163,759.1,161.6L759.1,161.6z"/>
</g>
<g>
	<path class="st4" d="M635.2,358.6L375.9,467.2c-6.1,2.6-13.1-0.7-15.7-6.8l-151-360.6c-2.8-6.6,0.1-13.3,6.1-15.9L474.7-24.8
		c6.1-2.6,13.1,0.7,15.7,6.8l151.1,360.6C644.1,349.2,641.4,356,635.2,358.6z"/>
	<path class="st12" d="M639.4,368.7L380.1,477.2c-11.4,4.7-24.1-1.1-29.1-13L200,103.7c-4.9-11.8-0.2-25,11.1-29.8L470.5-34.8
		c11.4-4.7,24.1,1.1,29.1,13l151.1,360.6C655.5,350.6,650.4,364,639.4,368.7z M219.4,93.5c-0.9,0.4-1,1.5-0.6,2.3L369.7,456
		c0.4,0.9,1.6,1.4,2,1.2l259.3-108.7c0.9-0.4,1-1.5,0.6-2.3L480.7-13.9c-0.4-0.9-1.6-1.4-2-1.2L219.4,93.5z"/>
	<path class="st13" d="M418.1,33.9L296.7,84.7c-20.5,8.6-45.1-2.1-54.4-24.4L438.8-22C448.2,0.2,439.1,25.1,418.1,33.9z"/>
	<path class="st14" d="M330.4-5.4c-13.5,5.7-20.3,21.4-14.6,34.9l14.4-6.1c-2.4-5.6,0.6-12.1,5.8-14.2c5.6-2.4,12.1,0.6,14.2,5.8
		L364.7,9C360-4.4,343.9-11,330.4-5.4z"/>
	<path class="st15" d="M478.8,27.9l-223.9,93.9c-1.7,0.7-4,0.2-5-2.1c-1-2.3-0.2-4,2.1-5l223.9-93.9c1.7-0.7,4-0.2,5,2.1
		S480.5,27.2,478.8,27.9z"/>
	<path class="st15" d="M485.6,44.1l-224,93.9c-1.7,0.7-4,0.2-5-2.1c-0.9-2.1-0.2-4,2.1-5L482.5,37c1.7-0.7,4-0.2,5,2.1
		C488,41.5,487.3,43.4,485.6,44.1z"/>
	<path class="st15" d="M492.3,60.3l-224,93.8c-1.7,0.7-4,0.2-5-2.1c-1-2.3-0.2-4,2.1-5l223.9-93.9c1.7-0.7,4-0.2,5,2.1
		C494.6,57.2,494.1,59.5,492.3,60.3z"/>
	<path class="st15" d="M498.9,75.9l-224,93.9c-1.7,0.7-4,0.2-5-2.1c-1-2.3-0.2-4,2.1-5l223.9-93.9c1.7-0.7,4-0.2,5,2.1
		C501.4,73.3,500.7,75.2,498.9,75.9z"/>
	<path class="st15" d="M505.6,92.1L281.7,186c-1.7,0.7-4,0.2-5-2.1c-1-2.3-0.2-4,2.1-5L502.7,85c1.7-0.7,4-0.2,5,2.1
		C508,89.1,507.4,91.4,505.6,92.1z"/>
	<path class="st15" d="M368.2,168.2l-79.9,33.4c-1.7,0.7-4,0.2-5-2.1c-0.9-2.1-0.2-4,2.1-5l79.9-33.4c1.7-0.7,4-0.2,5,2.1
		C371.1,165.5,369.9,167.5,368.2,168.2z"/>
	<path class="st15" d="M579.2,267.6l-223.9,93.9c-1.7,0.7-4,0.2-5-2.1c-0.9-2.1-0.2-4,2.1-5l223.9-93.9c1.7-0.7,4-0.2,5,2.1
		C582.1,264.9,580.9,266.9,579.2,267.6z"/>
	<path class="st15" d="M585.8,283.4l-223.9,93.8c-1.7,0.7-4,0.2-5-2.1c-0.9-2.1-0.2-4,2.1-5l223.9-93.9c1.7-0.7,4-0.2,5,2.1
		C588.3,280.8,587.5,282.6,585.8,283.4z"/>
	<path class="st15" d="M592.5,299.5l-223.9,93.8c-1.7,0.7-4,0.2-5-2.1c-0.9-2.1-0.2-4,2.1-5l223.9-93.8c1.7-0.7,4-0.2,5,2.1
		C594.9,296.5,594.3,298.7,592.5,299.5z"/>
	<path class="st15" d="M599.1,315.2l-223.9,93.9c-1.7,0.7-4,0.2-5-2.1c-0.9-2.1-0.2-4,2.1-5l223.9-93.9c1.7-0.7,4-0.2,5,2.1
		C601.7,312.6,600.9,314.5,599.1,315.2z"/>
	<path class="st15" d="M605.9,331.4l-80.3,33.7c-1.7,0.7-4,0.2-5-2.1c-0.9-2.1-0.2-4,2.1-5l80.3-33.7c1.7-0.7,4-0.2,5,2.1
		C608.2,328.3,607.6,330.7,605.9,331.4z"/>
	<path class="st15" d="M536.2,168.7l-220,92.2c-0.4,0.2-1.1-0.1-1.3-0.5c-0.2-0.4,0.1-1.1,0.5-1.3l220.6-92.4
		c0.4-0.2,1.1,0.1,1.3,0.5C537,168.3,536.6,168.5,536.2,168.7z"/>
	<path class="st15" d="M545.6,191.4l-220,92.2c-0.4,0.2-1.1-0.1-1.3-0.5c-0.2-0.4,0.1-1.1,0.5-1.3l220.5-92.4
		c0.4-0.2,1.1,0.1,1.3,0.5C546.4,190.5,546.2,191.1,545.6,191.4z"/>
	<path class="st15" d="M555,213.6l-220,92.2c-0.4,0.2-1.1-0.1-1.3-0.5c-0.2-0.4,0.1-1.1,0.5-1.3l220.5-92.4c0.4-0.2,1.1,0.1,1.3,0.5
		C555.6,212.8,555.4,213.4,555,213.6z"/>
	<path class="st15" d="M526.2,153.3l32.2,76.9l-215.2,90.1l-32.2-76.9L526.2,153.3 M526.8,147.5l-221,92.5c-0.9,0.4-1,1.5-0.6,2.3
		l34.8,82.9c0.4,0.9,1.6,1.4,2,1.2l220.9-92.5c0.9-0.4,1-1.5,0.6-2.3l-34.8-82.9C528.9,147.6,527.6,147.1,526.8,147.5z"/>
	<path class="st16" d="M341.9,322.4l9.9-46.3c0.4-2.7,3.1-4.8,6.1-5.1l29.4-2.1c2.5-0.1,4.8-2.1,5.4-4.3l11.1-32.4
		c0.6-2.3,2.8-4.3,5.8-4.5l32.5-1.8c2.1,0.1,4.1-1.2,5.3-3.2c9-16.6,53.3-95.7,67.9-104.9c-11.8,27-48,105.9-56,123.6
		c-1.2,2-3,3.9-5.6,3.9l-32.7,0.3c-2.5,0.1-5,1.5-6,4.1l-11.4,30.5c-0.9,3-3.9,4.2-6.4,4.3l-33.1-2c-2.7-0.4-5.2,1.1-6.2,3.6
		C357.9,285.9,341.9,322.4,341.9,322.4z"/>
</g>
<g>
	
		<ellipse transform="matrix(0.3502 -0.9367 0.9367 0.3502 -158.8891 1072.2133)" class="st17" cx="693.3" cy="650.6" rx="33.9" ry="111.8"/>
	<path class="st18" d="M821.3,627.4c-21.6,57.9-73.3,53.3-131.3,31.7c-57.9-21.6-99.9-52.2-78.3-110
		c21.6-57.9,156.5-99.2,156.5-99.2S843,569.8,821.3,627.4z"/>
	<path class="st19" d="M749.3,628.6c0.1-0.8-0.2-1.7-0.6-2c-0.6-0.7-1.1-1.3-2.6-1.8c-1.2-0.5-2-1-2.6-1.6c-2.1-1.6-3.1-3.3-2.9-5.9
		c0.1-1.6,0.8-3,1.9-3.8c1.2-0.9,2.4-1.6,4.3-1.3l0.4-3.1l2.3,0.3l-0.4,3.3c1.8,0.4,3,1.4,3.5,2.6c0.5,1.2,1.1,2.8,0.9,4.9l-3.6-0.5
		c0.2-1.3,0-2.1-0.4-3.1c-0.4-0.9-1.1-1.3-2.2-1.3c-1-0.2-1.7,0.2-2.3,0.5s-1,1.2-1,2c-0.1,0.8,0.2,1.7,0.6,2
		c0.4,0.4,1.1,1.3,2.6,1.8c1.1,0.7,2.2,1.1,2.9,1.6s1.2,1,1.6,1.4c0.4,0.4,0.6,1,0.9,2c0.3,0.6,0.3,1.4,0.1,2.5
		c-0.1,1.6-0.8,3-1.9,3.8c-1.2,0.9-2.7,1.4-4.5,1.3L746,637l-2.3-0.3l0.3-2.9c-2-0.4-3.3-1.2-4.1-2.6c-0.8-1.4-1.3-2.9-1.1-5
		l3.7,0.3c-0.2,1.3,0,2.1,0.5,2.8c0.6,0.7,1.4,1.1,2.5,1.2c1,0.2,1.9-0.1,2.6-0.6C748.7,630.3,749.2,629.7,749.3,628.6L749.3,628.6z
		"/>
	<path class="st19" d="M728.1,535.2c0.1-0.5,0.1-0.8,0-1.3c-0.1-0.5-0.6-0.7-1.1-1.3c-0.6-0.5-1-0.9-1.4-1.1
		c-0.9-1.2-1.3-2.4-0.9-3.6c0.4-1,0.9-1.5,1.5-1.8c0.6-0.3,1.5-0.5,2.5-0.3l0.6-1.7l1.2,0.5l-0.6,1.7c1,0.4,1.4,1.1,1.7,2
		c0.2,0.9,0.2,1.7,0,2.7l-1.9-0.7c0.2-0.7,0.2-1.3,0.1-1.6c-0.1-0.6-0.6-0.7-1-0.9c-0.5-0.1-1-0.2-1.3,0c-0.3,0.2-0.7,0.6-0.9,1
		c-0.1,0.5-0.1,0.8,0,1.3c0.1,0.6,0.6,0.7,1.1,1.3c0.6,0.5,1,0.9,1.4,1.3c0.4,0.4,0.6,0.7,0.6,1c0.2,0.3,0.3,0.6,0.3,1.2
		c0.1,0.6-0.1,0.8-0.2,1.3c-0.4,1-0.9,1.5-1.5,1.8s-1.5,0.5-2.5,0.1l-0.5,1.4l-1.2-0.5l0.5-1.4c-1-0.4-1.7-1.2-2-1.8
		c-0.2-0.9-0.4-1.7,0-2.7l1.9,0.7c-0.2,0.7-0.2,1.3-0.1,1.6c0.1,0.3,0.6,0.7,1.2,1c0.7,0.2,1,0.2,1.6,0.1
		C727.8,536.1,728,535.6,728.1,535.2z"/>
	<path class="st19" d="M750.6,488.2c0.4-0.4,0.6-0.9,0.5-1.4c-0.1-0.5-0.3-1.2-0.7-1.8c-0.6-0.7-0.8-1.4-1-1.7
		c-0.5-1.5-0.5-2.8,0.5-4.1c0.6-0.9,1.6-1.3,2.4-1.3c0.9-0.2,1.8,0.1,2.7,0.8l1.4-1.6l1.2,1l-1.4,1.6c0.7,0.8,1,1.7,1.1,2.6
		c0.1,0.9-0.4,2-1.1,2.8l-1.6-1.4c0.5-0.6,0.7-1.1,0.7-1.9c-0.1-0.6-0.1-1.1-0.8-1.4c-0.4-0.4-0.9-0.6-1.4-0.5
		c-0.6,0.1-0.9,0.2-1.4,0.8c-0.4,0.4-0.6,0.9-0.5,1.4c0.1,0.6,0.3,1.2,0.7,1.8c0.6,0.7,0.8,1.4,1,1.7c0.1,0.6,0.2,0.9,0.3,1.4
		c0.1,0.5-0.1,0.8-0.2,1.3c-0.1,0.5-0.4,1-0.8,1.4c-0.6,0.9-1.6,1.3-2.4,1.3c-0.9,0.2-1.8-0.1-3-0.8l-1.1,1.4l-1.2-1l1.1-1.4
		c-0.7-0.8-1.2-1.8-1.3-2.9c-0.1-1.1,0.2-2.1,1.1-2.8l1.8,1.5c-0.5,0.6-0.7,1.1-0.7,1.9c0.1,0.6,0.3,1.2,0.7,1.6
		c0.6,0.5,1.1,0.7,1.7,0.6C749.8,488.8,750.1,488.6,750.6,488.2z"/>
	<path class="st18" d="M711.8,281.6c21.6-57.9,73.3-53.3,131.3-31.7s99.9,52.2,78.3,110c-21.6,57.9-156.5,99.2-156.5,99.2
		S690.3,339.3,711.8,281.6z"/>
	<path class="st19" d="M746.8,577.3c0.1-0.5,0.2-1,0-1.3c-0.2-0.3-0.7-0.8-1.4-1.3c-0.6-0.5-1-0.9-1.4-1.1c-1.1-1.3-1.6-2.4-1-3.9
		c0.4-1,0.9-1.5,1.6-2.1c0.7-0.6,1.5-0.5,2.5-0.3l0.4-2l1.4,0.5l-0.4,2c1,0.4,1.4,1.1,1.9,2c0.2,0.9,0.4,1.7,0,2.9l-2.2-0.5
		c0.2-0.7,0.2-1.3-0.1-1.9c-0.1-0.6-0.6-0.7-1.2-1c-0.5-0.1-1-0.2-1.3,0c-0.3,0.2-0.7,0.6-0.9,1c-0.1,0.5-0.2,1,0,1.3
		c0.2,0.3,0.7,0.8,1.4,1.3c0.6,0.5,1.2,1,1.4,1.3c0.4,0.4,0.6,0.7,0.9,1.2c0.2,0.3,0.3,0.6,0.3,1.2c0.1,0.6-0.1,0.8-0.3,1.5
		c-0.4,1-0.9,1.5-1.6,2.1c-0.7,0.6-1.7,0.4-2.8,0.3l-0.6,1.7l-1.4-0.5l0.6-1.7c-1.2-0.5-1.7-1.2-2.3-1.9c-0.6-0.7-0.4-1.7-0.2-3
		l2.2,0.5c-0.2,0.7-0.2,1.3,0.1,1.9c0.3,0.6,0.7,0.8,1.4,1.1c0.7,0.2,1.3,0.2,1.6,0.1C745.8,578.5,746.8,577.9,746.8,577.3
		L746.8,577.3z"/>
	<path class="st20" d="M763.3,673.6c-45-66.2,5.9-218.1,5.9-218.1l-5.2-1.9c0,0-55.8,152.2-137.3,169.8c15.1,14.8,37.8,26,63.5,35.5
		C716.5,669,741.8,675.2,763.3,673.6z"/>
	<path class="st20" d="M816.6,320.8c-47-44.7-98.6-39.2-104.7-39.4c-19.1,50.5,35.8,148.9,49.8,172.6c1.8,3.1,5.5,4.5,8.9,3.4
		c25.8-8.6,131.6-46.9,150.7-97.4C915.1,360,861.7,363.7,816.6,320.8z"/>
	<path class="st21" d="M824.6,243.5c-18.8-5.7-36.8-9.2-52.7-8.5c-83.7,78.9-7.1,224.1-7.1,224.1
		C749.2,324.6,793.9,266.7,824.6,243.5z"/>
	
		<ellipse transform="matrix(0.3502 -0.9367 0.9367 0.3502 303.8304 954.6947)" class="st17" cx="840" cy="258.4" rx="33.9" ry="111.8"/>
	<path class="st19" d="M713.7,606.2c0.5-0.6,0.5-1.4,0.2-2.1c-0.3-0.6-0.7-1.6-1.6-2.4c-0.7-0.8-1.5-1.9-1.9-2.3
		c-1.4-2.1-1.3-4.3-0.3-6.3c0.8-1.4,1.9-2.3,3.1-2.6c1.2-0.3,2.8-0.3,4.5,0.3l1.6-2.6l2,1l-1.6,2.6c1.2,1,2.1,2.3,2.4,3.9
		c0.3,1.4,0,2.9-1.2,4.6l-3.1-1.7c0.7-1.1,0.8-2.2,0.8-3c-0.2-0.9-0.5-1.5-1.4-2.1c-0.9-0.6-1.7-0.6-2.3-0.3s-1.3,0.6-1.6,1.5
		c-0.5,0.6-0.5,1.4-0.2,2.1c0.3,0.6,0.7,1.6,1.6,2.4c0.9,1.2,1.5,1.9,1.9,2.6c0.5,0.7,0.8,1.4,0.9,2c0.3,0.6,0.3,1.4,0.1,1.9
		c-0.1,0.8-0.3,1.5-0.8,2.2c-0.8,1.4-1.9,2.3-3.2,2.8c-1.4,0.3-2.8,0.3-4.4-0.6l-1.5,2.4l-2-1l1.5-2.4c-1.4-1.1-2.5-2.6-2.8-4
		c-0.3-1.4,0.1-3.2,1-4.7l3.1,1.7c-0.7,1.1-0.8,2.2-0.6,3c0.2,0.8,0.7,1.6,1.6,2.2c0.9,0.6,1.9,0.7,2.5,0.7
		C712.5,607.9,713.4,606.9,713.7,606.2L713.7,606.2z"/>
	<path class="st19" d="M672.4,618.9c0.2-1-0.1-1.9-0.6-2.6c-0.6-0.7-1.6-1.4-3-2.2c-1.4-0.8-2.5-1.2-3.4-1.8
		c-2.6-1.8-3.8-4.2-3.6-6.9c0.2-2.1,1-3.3,2.3-4.8c1.3-1.1,3.1-1.8,5.2-1.8l0.3-3.9l2.9,0.3l-0.3,3.9c2,0.4,3.4,1.5,4.5,3
		c1,1.7,1.4,3.5,1,5.8l-4.4-0.6c0.3-1.5,0-2.7-0.5-3.6c-0.4-0.9-1.4-1.3-2.6-1.6c-1-0.2-2.1,0-2.6,0.6c-0.7,0.6-1.1,1.4-1.2,2.5
		c-0.2,1,0.1,1.9,0.6,2.6c0.6,0.7,1.6,1.4,3,2.2c1.4,0.8,2.6,1.6,3.4,1.8c0.9,0.6,1.4,1.1,2,1.8c0.6,0.7,0.8,1.4,1.1,2.3
		c0.2,0.9,0.4,1.7,0.3,2.8c-0.2,2.1-1.1,3.6-2.3,4.8c-1.5,1.1-3.1,1.8-5.4,1.8l-0.4,3.3l-2.9-0.3l0.4-3.3c-2.2-0.5-4-1.5-5-2.9
		c-1.1-1.5-1.6-3.5-1.3-5.9l4.4,0.6c-0.3,1.5,0,2.7,0.9,3.6c0.8,0.9,1.6,1.4,3.1,1.7c1.3,0.2,2.5-0.1,3.3-0.7
		C671.7,620.9,672.3,620,672.4,618.9L672.4,618.9z"/>
	<path class="st19" d="M715.3,652.1c0.7-0.6,1-1.2,1.2-1.9c0.1-0.8-0.1-1.9-0.4-3.1c-0.3-1.2-0.7-2.5-0.8-3
		c-0.3-2.5,0.4-4.7,2.3-6.2c1.5-1.1,2.7-1.4,4.2-1.1c1.5,0.3,3,0.8,4,2.3l2.6-1.9l1.5,1.9l-2.6,1.9c0.7,1.6,1,3.1,0.7,4.6
		s-1.3,2.7-3.1,3.9l-2.1-2.9c1-0.6,1.6-1.5,2-2.5c0.4-1,0.1-1.6-0.3-2.5c-0.6-0.7-1.1-1.3-1.9-1.2c-0.8-0.1-1.3,0-2.5,0.7
		c-0.7,0.6-1,1.2-1.2,1.9c-0.1,0.8,0.1,1.9,0.4,3.1c0.3,1.2,0.7,2.5,0.7,3.3c0.2,0.9,0.2,1.7-0.1,2.4c-0.1,0.8-0.3,1.5-0.7,1.9
		s-1,1.2-1.7,1.8c-1.5,1.1-2.7,1.4-4.2,1.1s-2.8-1.1-4-2.3l-2.3,1.9l-1.5-1.9l2.3-1.9c-1-1.7-1.4-3.5-1.1-5s1.4-3,2.9-4l2.1,2.9
		c-1,0.6-1.6,1.5-1.8,2.6c-0.2,1,0.1,1.9,0.8,2.8s1.4,1.3,2.1,1.6C713.6,652.9,714.5,652.7,715.3,652.1L715.3,652.1z"/>
	<path class="st19" d="M755.3,526.3c-0.1-0.6-0.1-1.1-0.5-1.5c-0.4-0.4-1-0.9-1.9-1.2c-1-0.4-1.7-0.6-2-1c-1.8-0.9-2.2-2.4-2.2-4.1
		c0.2-1.3,0.5-2.2,1.4-3c0.8-0.7,1.8-1.2,3.2-1.2l0.1-2.4l1.8,0.1l-0.1,2.4c1.3,0.2,2.2,0.8,2.8,1.9s0.8,2.2,0.9,3.6l-2.6-0.2
		c0.1-0.8-0.2-1.7-0.5-2.3c-0.3-0.6-1-0.9-1.5-0.9c-0.8-0.1-1.3,0-1.7,0.4c-0.4,0.4-0.6,0.9-0.6,1.7c0.1,0.6,0.1,1.1,0.5,1.5
		s1,0.9,1.9,1.2c1,0.4,1.5,0.9,2,1s0.9,0.6,1.2,1c0.4,0.4,0.6,0.7,0.8,1.4l0.2,1.7c-0.2,1.3-0.5,2.2-1.4,3s-1.8,1.2-3.2,1.2
		l-0.2,2.1l-1.8-0.1l0.2-2.1c-1.5-0.3-2.5-1-3.1-1.7c-0.7-0.8-1.1-2.1-0.9-3.6l2.6,0.2c-0.1,0.8,0.2,1.7,0.6,2
		c0.4,0.4,1,0.9,1.8,0.9c0.8,0.1,1.3,0,2-0.6C755,527.2,755.4,526.8,755.3,526.3L755.3,526.3z"/>
	<path class="st19" d="M704.5,567.4c0.5-0.6,0.9-1,0.9-1.8c0.1-0.8-0.2-1.7-0.6-2.6c-0.3-1.2-0.8-2.2-0.8-2.8
		c-0.5-2.3,0-4.3,1.7-5.8c1.2-0.9,2.4-1.6,3.8-1.6c1.3,0,2.5,0.7,3.7,1.6l2.3-1.9l1.5,1.6l-2.3,2.1c0.8,1.4,1.1,2.6,0.8,4.1
		c-0.3,1.5-1,2.5-2.5,3.8l-2.2-2.4c0.8-0.7,1.4-1.6,1.5-2.4c0.1-0.8,0.1-1.6-0.8-2.2c-0.6-0.7-1.2-1-2-1c-0.8-0.1-1.4,0.3-2,0.9
		c-0.5,0.6-0.9,1-0.9,1.8s0.2,1.7,0.6,2.6c0.4,0.9,0.8,2.2,0.8,2.8c0.2,0.9,0.3,1.4,0.3,2.2c-0.1,0.8-0.2,1.3-0.4,2
		c-0.2,0.7-0.7,1.1-1.4,1.6c-1.2,0.9-2.4,1.6-3.7,1.3c-1.3,0-2.7-0.8-3.9-1.8l-2,1.7l-1.5-1.6l2-1.7c-1.1-1.5-1.5-3-1.3-4.5
		s1.1-2.8,2.3-4l2.2,2.4c-0.8,0.7-1.4,1.6-1.5,2.4c-0.1,0.8,0.2,1.7,0.9,2.5c0.8,0.7,1.4,1.3,2.2,1.3
		C702.9,568.4,703.8,567.9,704.5,567.4L704.5,567.4z"/>
	<path class="st19" d="M736.6,551.2c0.1-0.5,0.2-1,0-1.3c-0.2-0.3-0.7-0.8-1.4-1.3s-1-0.9-1.4-1.3c-1.1-1.3-1.6-2.4-1-3.9
		c0.4-1,0.9-1.5,1.6-2.1s1.7-0.4,2.8-0.3l0.7-1.9l1.4,0.5l-0.7,1.9c1,0.4,1.4,1.1,1.9,2c0.2,0.9,0.4,2,0,2.9l-2.2-0.8
		c0.2-0.7,0.2-1.3,0.1-1.8c-0.1-0.6-0.6-0.7-1.2-1c-0.5-0.1-1-0.2-1.3,0c-0.3,0.2-0.7,0.6-0.9,1c-0.1,0.5-0.2,1,0,1.3
		s0.7,0.8,1.4,1.3c0.6,0.5,1.2,1,1.4,1.3c0.4,0.4,0.6,0.7,0.9,1.2s0.2,0.9,0.3,1.2c0.1,0.6-0.1,0.8-0.3,1.5c-0.4,1-0.9,1.5-1.6,2.1
		c-0.7,0.6-1.7,0.4-2.8,0.3l-0.6,1.7l-1.4-0.5l0.6-1.7c-1.2-0.5-1.7-1.2-2.2-2.1s-0.4-2,0-2.9l2.2,0.8c-0.2,0.7-0.2,1.3,0.1,1.9
		s0.7,0.8,1.4,1.1c0.7,0.2,1.3,0.2,1.6,0.1C736.2,552.3,736.6,551.2,736.6,551.2z"/>
</g>
<g>
	<path class="st22" d="M628.8,252.8l147.5,68.8c20.6,9.6-0.4,54.6-0.4,54.6l-168-78.4L628.8,252.8z"/>
	<path class="st23" d="M399.8,549.6c0,0-14.1,31.2-41.2,27.6l187,87.2c20.6,9.6,44.6,0.5,54-19.7L737,350c0,0,14.1-31.2,41.2-27.6
		l-187-87.1c-20.6-9.6-44.6-0.5-54,19.7L399.8,549.6L399.8,549.6z"/>
	<g>
		<path class="st24" d="M558.5,309.4l124.2,57.9c2.3,1.1,5.2,0.1,6.2-2.3c1.1-2.3,0.1-5.2-2.3-6.2l-124.1-58
			c-2.3-1.1-5.2-0.1-6.2,2.3C555.1,305.4,556.2,308.2,558.5,309.4z"/>
		<path class="st24" d="M676,380.6l-124.2-57.9c-2.3-1.1-5.2-0.1-6.2,2.3c-1.1,2.3-0.1,5.2,2.3,6.2l124.2,57.9
			c2.3,1.1,5.2,0.1,6.2-2.3C679.4,384.6,678.3,381.7,676,380.6z"/>
		<path class="st24" d="M665.5,403.1l-124.2-57.9c-2.3-1.1-5.2-0.1-6.2,2.3c-1.1,2.4-0.1,5.2,2.3,6.2l124.2,57.9
			c2.3,1.1,5.2,0.1,6.2-2.3C668.9,407.1,667.8,404.2,665.5,403.1z"/>
		<path class="st24" d="M603.6,535.9L479.4,478c-2.3-1.1-5.2-0.1-6.2,2.3c-1.1,2.3-0.1,5.2,2.3,6.2l124.2,57.9
			c2.3,1.1,5.2,0.1,6.2-2.3C607,539.8,605.9,536.9,603.6,535.9z"/>
		<path class="st24" d="M527.7,402.7l47.3,22.1c2.3,1.1,5.2,0.1,6.2-2.3c1.1-2.3,0.1-5.2-2.3-6.2l-47.3-22.1
			c-2.3-1.1-5.2-0.1-6.2,2.3C524.4,398.8,525.4,401.7,527.7,402.7z"/>
		<path class="st24" d="M507.7,418.4l47.3,22.1c2.3,1.1,5.2,0.1,6.2-2.3c1.1-2.3,0.1-5.2-2.3-6.2l-47.3-22.1
			c-2.3-1.1-5.2-0.1-6.2,2.3C504.3,414.4,505.4,417.3,507.7,418.4z"/>
		<path class="st24" d="M508.6,443.8l47.3,22.1c2.3,1.1,5.2,0.1,6.2-2.3c1.1-2.3,0.1-5.2-2.3-6.2l-47.3-22.1
			c-2.3-1.1-5.2-0.1-6.2,2.3S506.3,442.8,508.6,443.8z"/>
		<path class="st24" d="M593.1,558.4l-124.2-57.9c-2.3-1.1-5.2-0.1-6.2,2.3c-1.1,2.3-0.1,5.2,2.3,6.2l124.2,57.9
			c2.3,1.1,5.2,0.1,6.2-2.3C596.5,562.3,595.4,559.5,593.1,558.4z"/>
		<path class="st24" d="M582.8,580.5l-124.2-57.9c-2.3-1.1-5.2-0.1-6.2,2.3c-1.1,2.4-0.1,5.2,2.3,6.2L578.9,589
			c2.3,1.1,5.2,0.1,6.2-2.3C586.2,584.4,585.1,581.6,582.8,580.5z"/>
		<path class="st24" d="M577.2,472L577.2,472c-2.5,1.2-3.5,3.5-2.1,5.7c2.6,5.5,6.8,9.7,11.6,12.5l-2.9,6.2c-0.9,2-0.1,4.2,1.9,5.2
			c2,0.9,4.2,0.1,5.2-1.9l2.7-5.8c10.1,2.8,19.3,0.1,23.9-9.7c4.2-8.9,1.6-16.7-7-26.5l9.7-21c2.7,2.2,4.7,5.1,6.6,8.3
			c1,1.9,3.5,2.6,5.4,1.6l0.2-0.4c1.9-1,2.6-3.5,1.6-5.4c-2.6-4.5-6.4-8.6-10.5-11.1l2-4.3c0.9-2,0.1-4.2-1.9-5.2
			c-2-1-4.2-0.1-5.2,1.9l-2,4.3c-8.5-2-18.6,0.3-22.5,8.8c-2,4.3-1.9,9.1-0.8,12.9c1.5,4,4.7,8.3,7.6,11.1l-11.2,24.1
			c-3.1-2.4-5.9-5.6-7.5-9.2C581.4,472.1,579.1,471,577.2,472z M606.7,465.5c4.6,5.4,5.4,9.6,2.9,15.1c-2.4,5.1-7.1,7.1-12.9,6.3
			L606.7,465.5z M601.9,439.2c2.4-5.1,6.1-6.1,11.5-5.5l0,0l-8.4,17.9C600.6,446.1,600.3,442.7,601.9,439.2z"/>
	</g>
</g>
</svg>
