<?xml version="1.0" encoding="utf-8"?>
<!-- Generator: Adobe Illustrator 22.1.0, SVG Export Plug-In . SVG Version: 6.00 Build 0)  -->
<svg version="1.1" id="Camada_1" xmlns="http://www.w3.org/2000/svg" xmlns:xlink="http://www.w3.org/1999/xlink" x="0px" y="0px"
	 viewBox="0 0 75.3 75.3" style="enable-background:new 0 0 75.3 75.3;" xml:space="preserve">
<style type="text/css">
	.st0{fill:#222222;}
</style>
<path class="st0" d="M60.3,0H37c-0.6,0-1.2,0.2-1.6,0.7L25,11.2c-1.4,1.4-0.4,3.8,1.6,3.8l21.7,0L0.7,62.6C0.3,63,0,63.6,0,64.2v8.9
	c0,1.2,1,2.2,2.2,2.2h8.9c0.6,0,1.2-0.2,1.6-0.7l43.8-43.8c0.6-0.6,3.8-3.9,3.8-3.9l0,5.5v16.3c0,2,2.4,3,3.8,1.6l10.5-10.5
	c0.4-0.4,0.7-1,0.7-1.6V15V2.2c0-1.2-1-2.2-2.2-2.2H60.3z"/>
</svg>
