<?xml version="1.0" encoding="utf-8"?>
<!-- Generator: Adobe Illustrator 22.1.0, SVG Export Plug-In . SVG Version: 6.00 Build 0)  -->
<svg version="1.1" id="Camada_1" xmlns="http://www.w3.org/2000/svg" xmlns:xlink="http://www.w3.org/1999/xlink" x="0px" y="0px"
	 viewBox="0 0 100 100" style="enable-background:new 0 0 100 100;" xml:space="preserve">
<style type="text/css">
	.st0{fill:none;stroke:#FFFFFF;stroke-width:10;stroke-linecap:round;stroke-miterlimit:10;}
</style>
<g>
	<path class="st0" d="M11.8,78.5L11.8,78.5c-7.1-7.1-7.1-18.5,0-25.6l15.8-15.8c7.1-7.1,18.5-7.1,25.6,0l0,0
		c7.1,7.1,7.1,18.5,0,25.6L37.4,78.5C30.3,85.6,18.8,85.6,11.8,78.5z"/>
	<path class="st0" d="M92.1,22c2.7,6.6,1.4,14.4-3.9,19.8L72.4,57.6c-7.1,7.1-18.5,7.1-25.6,0l0,0c-7.1-7.1-7.1-18.5,0-25.6
		l15.8-15.8"/>
</g>
<g>
</g>
<g>
</g>
<g>
</g>
<g>
</g>
<g>
</g>
<g>
</g>
</svg>
